<svg width="15" height="5" viewBox="0 0 15 5" fill="none" xmlns="http://www.w3.org/2000/svg">
<path d="M0.976562 2.78125V2.46094C0.976562 2.01302 1.11719 1.64323 1.39844 1.35156C1.6849 1.0599 2.07292 0.914062 2.5625 0.914062C3.05729 0.914062 3.44792 1.0599 3.73438 1.35156C4.02083 1.64323 4.16406 2.01302 4.16406 2.46094V2.78125C4.16406 3.22396 4.02083 3.59115 3.73438 3.88281C3.45312 4.16927 3.0651 4.3125 2.57031 4.3125C2.08073 4.3125 1.69271 4.16927 1.40625 3.88281C1.11979 3.59115 0.976562 3.22396 0.976562 2.78125ZM6.38281 2.78125V2.46094C6.38281 2.01302 6.52344 1.64323 6.80469 1.35156C7.09115 1.0599 7.47917 0.914062 7.96875 0.914062C8.46354 0.914062 8.85417 1.0599 9.14062 1.35156C9.42708 1.64323 9.57031 2.01302 9.57031 2.46094V2.78125C9.57031 3.22396 9.42708 3.59115 9.14062 3.88281C8.85938 4.16927 8.47135 4.3125 7.97656 4.3125C7.48698 4.3125 7.09896 4.16927 6.8125 3.88281C6.52604 3.59115 6.38281 3.22396 6.38281 2.78125ZM11.7891 2.78125V2.46094C11.7891 2.01302 11.9297 1.64323 12.2109 1.35156C12.4974 1.0599 12.8854 0.914062 13.375 0.914062C13.8698 0.914062 14.2604 1.0599 14.5469 1.35156C14.8333 1.64323 14.9766 2.01302 14.9766 2.46094V2.78125C14.9766 3.22396 14.8333 3.59115 14.5469 3.88281C14.2656 4.16927 13.8776 4.3125 13.3828 4.3125C12.8932 4.3125 12.5052 4.16927 12.2188 3.88281C11.9323 3.59115 11.7891 3.22396 11.7891 2.78125Z" fill="black"/>
</svg>
