<svg width="21" height="20" viewBox="0 0 21 20" fill="none" xmlns="http://www.w3.org/2000/svg">
<g clip-path="url(#clip0_132_11744)">
<path d="M14.6033 11.5998L16.8683 13.8631L10.7408 19.9906L4.61333 13.8639L6.8775 11.5998L10.7408 15.4831L14.6033 11.5998ZM18.4675 7.73643L20.75 9.99977L18.4875 12.2631L16.2233 9.99977L18.4675 7.73643ZM10.7408 7.73643L13.0042 9.97977L10.74 12.2439L8.47667 9.99977L10.7408 7.73643ZM3.01333 7.73643L5.25833 9.99977L3.015 12.2431L0.75 9.99977L3.01333 7.73643ZM10.7417 0.00976562L16.8667 6.11643L14.6025 8.37893L10.7417 4.51643L6.87833 8.39977L4.61417 6.13643L10.7417 0.00976562Z" fill="#878786"/>
</g>
<defs>
<clipPath id="clip0_132_11744">
<rect width="20" height="20" fill="white" transform="translate(0.75)"/>
</clipPath>
</defs>
</svg>
