<svg width="44" height="44" viewBox="0 0 44 44" fill="none" xmlns="http://www.w3.org/2000/svg">
<path d="M25.1195 30.2368C25.0532 30.5747 24.9986 30.995 24.9954 31.4763C24.9944 31.9832 25.05 32.4237 25.1195 32.7756C24.9784 32.6986 24.7163 32.5308 24.5003 32.2184C24.2736 31.8933 24.2116 31.5746 24.1913 31.4141C23.7239 31.581 22.9936 31.7809 22.0834 31.7853C21.1434 31.7895 20.3884 31.5842 19.9156 31.4141C19.8921 31.58 19.8172 31.9361 19.5445 32.2804C19.3221 32.5585 19.0696 32.7049 18.9242 32.7755C18.9948 32.4268 19.0526 31.9863 19.0472 31.4761C19.0429 31.0184 18.9894 30.6205 18.9242 30.2987C19.6461 30.4216 20.5006 30.5201 21.4642 30.5425V29.1482C21.2942 29.0936 21.1284 29.0166 20.9755 28.9129L20.7584 28.7653C20.3467 28.4872 20.1017 28.0242 20.1017 27.5269C20.1017 27.0435 20.4931 26.6511 20.9754 26.6511H23.0672C23.5506 26.6511 23.9431 27.0435 23.9431 27.5269C23.9431 28.0242 23.6971 28.4872 23.2854 28.7653L23.0682 28.9129C22.9142 29.0166 22.7506 29.0936 22.5784 29.1482V30.531C23.5432 30.4914 24.3998 30.3738 25.1195 30.2368Z" fill="white"/>
<path d="M22 2.75C11.3686 2.75 2.75 11.3686 2.75 22C2.75 32.6314 11.3686 41.25 22 41.25C32.6314 41.25 41.25 32.6314 41.25 22C41.25 11.3686 32.6314 2.75 22 2.75ZM33.0046 29.7471C30.993 32.7491 26.6242 35.8269 22.169 35.8997H22.1476L22.1358 35.9018H22.1069C22.078 35.9029 22.047 35.9029 22.0171 35.9029H21.9603C21.5936 35.9018 21.2106 35.8794 20.8236 35.8365C16.4207 35.335 12.3012 32.0453 10.6606 29.2027C10.0617 28.1632 9.98364 27.4809 10.1109 27.1879C10.1163 27.175 10.1238 27.1622 10.1334 27.144C10.3869 26.6916 11.4627 26.3493 12.6369 26.3493C12.7823 26.3493 12.9214 26.3536 13.0508 26.3664C14.9469 26.5226 16.1565 27.8968 16.5906 28.4807L17.1906 29.2924L17.6045 28.3716C18.3863 26.6317 20.1198 25.5056 22.0223 25.4991H22.0362C23.9185 25.4991 25.6477 26.606 26.4423 28.3171L26.869 29.2379L27.4593 28.4133C27.7919 27.9481 29.0292 26.4252 30.981 26.3033C31.0719 26.2979 31.1671 26.2947 31.2655 26.2947C32.4879 26.2947 33.6525 26.7118 33.8589 27.2241L33.8696 27.2455C34.0002 27.6146 33.8506 28.483 33.0046 29.7471ZM34.4141 26.9537C34.413 26.9697 34.4109 26.9847 34.4087 27.0008C33.998 25.9933 32.1382 25.6383 30.9447 25.7142C28.6122 25.8586 27.2144 27.7397 26.9792 28.0681C26.0841 26.1399 24.1441 24.9015 22.0213 24.9079C19.8856 24.9133 17.9403 26.1784 17.0655 28.1291C16.7992 27.7697 15.4186 25.9677 13.1 25.7763C11.9674 25.6811 10.1301 25.9389 9.61673 26.8554C9.49379 25.8608 9.58888 24.9282 9.62957 24.5368C9.67448 24.109 9.91934 22.1925 11.2113 19.8077C10.3931 18.9713 10.1226 17.9447 9.75469 16.5438C9.47877 15.5033 9.78357 8.40963 10.1888 8.17747C10.6583 7.909 11.4359 8.29836 13.0998 9.60415C15.5532 11.5302 16.8343 12.5355 17.4215 13.4873C21.8425 11.5773 25.9139 13.1835 26.6197 13.4873C27.255 12.4231 28.3469 11.5655 30.4483 9.91318C33.0182 7.89296 33.6181 8.03952 33.8545 8.17747C34.2235 8.39346 34.4299 15.1566 34.1657 16.2956C33.7541 18.0644 33.5305 19.0216 32.8236 19.8023C33.3584 20.8685 34.015 22.4855 34.2898 24.5368C34.3864 25.2511 34.4986 26.082 34.4141 26.9537Z" fill="white"/>
<path d="M14.1727 11.9868C13.9459 11.774 12.0648 10.0211 11.3985 10.2404C11.3793 10.2458 11.3632 10.2533 11.3504 10.2607C11.2499 10.3131 10.9407 10.5067 10.9215 11.4949C10.8499 15.1257 10.8146 17.0068 12.2936 17.9683C13.1609 16.6411 14.4047 15.1417 16.3105 14.0445C16.1779 13.7824 16.1255 13.822 14.1727 11.9868Z" fill="white"/>
<path d="M33.1233 11.4949C33.1169 11.1558 33.0922 10.466 32.6944 10.2607C32.6794 10.2533 32.6633 10.2457 32.6441 10.2404C31.9629 10.0158 30.0004 11.8628 29.8721 11.9868C28.5641 13.2402 27.9076 13.8723 27.7857 14.1257C29.3812 15.1887 30.7876 16.8646 31.6912 18.0912C33.2292 17.1811 33.1907 15.1502 33.1233 11.4949Z" fill="white"/>
<path d="M29.8444 21.3754C29.8177 21.354 29.7877 21.3359 29.7567 21.3209C29.5674 21.2342 29.3022 21.2706 29.0102 21.3754C28.4509 21.5753 27.791 22.0192 27.3665 22.3058C27.035 22.5282 24.8875 23.9742 25.1345 24.4747C25.312 24.8308 26.5901 24.4821 27.9846 24.1015C28.8957 23.8544 29.5085 23.5956 29.8444 23.0534C29.9075 22.9529 30.0668 22.6866 30.0924 22.3058C30.0968 22.2364 30.1363 21.6128 29.8444 21.3754Z" fill="white"/>
<path d="M26.4211 20.5017C26.4468 20.5242 26.4734 20.5412 26.4981 20.5627C26.6659 20.6824 26.8724 20.7562 27.1119 20.7562H28.8284C29.8143 20.7562 30.2615 19.5178 29.4989 18.8911C29.0808 18.5478 28.5482 18.3393 27.9696 18.3393C27.3921 18.3393 26.8595 18.5478 26.4402 18.8911C25.9108 19.3275 25.9654 20.0579 26.3782 20.4632C26.3922 20.476 26.4072 20.4899 26.4211 20.5017Z" fill="white"/>
<path d="M16.6944 22.3058C16.2218 21.9892 15.4667 21.4791 14.8763 21.3209C14.7021 21.2738 14.5417 21.2577 14.4069 21.2866C14.3353 21.3016 14.2711 21.3315 14.2154 21.3754C13.9224 21.6128 13.962 22.2363 13.9662 22.3058C13.9919 22.6866 14.1533 22.9529 14.2154 23.0534C14.5513 23.5956 15.1629 23.8544 16.0741 24.1015C17.4687 24.4822 18.7466 24.8308 18.9241 24.4747C19.1713 23.9742 17.0249 22.5283 16.6944 22.3058Z" fill="white"/>
<path d="M14.5449 18.8911C13.7813 19.5178 14.2283 20.7562 15.2164 20.7562H16.9308C17.1255 20.7562 17.3008 20.707 17.4484 20.6257C17.55 20.5679 17.6409 20.4941 17.7157 20.4085C18.0825 19.9957 18.1093 19.3081 17.6024 18.891C17.1853 18.5477 16.6506 18.3392 16.0742 18.3392C15.4957 18.3393 14.9619 18.5478 14.5449 18.8911Z" fill="white"/>
</svg>
