<svg width="32" height="32" viewBox="0 0 32 32" fill="none" xmlns="http://www.w3.org/2000/svg">
<path d="M15.6483 4.35158C15.537 4.23994 15.4048 4.1514 15.2592 4.09106C15.1136 4.03072 14.9575 3.99977 14.7999 4H8.79995C8.64234 3.99977 8.48624 4.03072 8.34064 4.09106C8.19504 4.1514 8.06281 4.23994 7.95156 4.35158L4.3516 7.9514C4.23995 8.06264 4.1514 8.19486 4.09106 8.34046C4.03072 8.48605 3.99977 8.64215 4 8.79975V14.7994C4 15.1186 4.126 15.4234 4.3516 15.6478L16.3515 27.6472C16.4627 27.759 16.5949 27.8477 16.7404 27.9083C16.886 27.9688 17.0422 28 17.1999 28C17.3576 28 17.5137 27.9688 17.6593 27.9083C17.8049 27.8477 17.9371 27.759 18.0483 27.6472L27.6482 18.0477C27.7597 17.9363 27.8482 17.8041 27.9086 17.6585C27.9689 17.513 28 17.3569 28 17.1993C28 17.0417 27.9689 16.8857 27.9086 16.7401C27.8482 16.5945 27.7597 16.4623 27.6482 16.351L15.6483 4.35158ZM11.6235 13.5995C11.36 13.6061 11.0978 13.5599 10.8523 13.4636C10.6069 13.3673 10.3832 13.2228 10.1945 13.0388C10.0057 12.8548 9.85568 12.6348 9.75322 12.3919C9.65076 12.149 9.59793 11.888 9.59785 11.6244C9.59777 11.3608 9.65044 11.0998 9.75276 10.8568C9.85507 10.6139 10.005 10.3938 10.1936 10.2097C10.3823 10.0255 10.6059 9.88096 10.8512 9.78452C11.0966 9.68807 11.3588 9.64169 11.6223 9.64811C12.1379 9.66066 12.6282 9.87424 12.9884 10.2433C13.3487 10.6123 13.5505 11.1075 13.5506 11.6232C13.5508 12.1389 13.3493 12.6343 12.9893 13.0035C12.6292 13.3728 12.1391 13.5866 11.6235 13.5995Z" fill="#878786"/>
</svg>
