<svg width="33" height="32" viewBox="0 0 33 32" fill="none" xmlns="http://www.w3.org/2000/svg">
<path d="M4.3335 8H28.3335V24H4.3335V8ZM16.3335 12C17.3944 12 18.4118 12.4214 19.1619 13.1716C19.9121 13.9217 20.3335 14.9391 20.3335 16C20.3335 17.0609 19.9121 18.0783 19.1619 18.8284C18.4118 19.5786 17.3944 20 16.3335 20C15.2726 20 14.2552 19.5786 13.5051 18.8284C12.7549 18.0783 12.3335 17.0609 12.3335 16C12.3335 14.9391 12.7549 13.9217 13.5051 13.1716C14.2552 12.4214 15.2726 12 16.3335 12ZM9.66683 10.6667C9.66683 11.3739 9.38588 12.0522 8.88578 12.5523C8.38568 13.0524 7.70741 13.3333 7.00016 13.3333V18.6667C7.70741 18.6667 8.38568 18.9476 8.88578 19.4477C9.38588 19.9478 9.66683 20.6261 9.66683 21.3333H23.0002C23.0002 20.6261 23.2811 19.9478 23.7812 19.4477C24.2813 18.9476 24.9596 18.6667 25.6668 18.6667V13.3333C24.9596 13.3333 24.2813 13.0524 23.7812 12.5523C23.2811 12.0522 23.0002 11.3739 23.0002 10.6667H9.66683Z" fill="#F5DE9D"/>
</svg>
