<svg width="24" height="24" viewBox="0 0 24 24" fill="none" xmlns="http://www.w3.org/2000/svg">
<path d="M2.14844 11.8101C7.39511 9.5241 10.8941 8.01677 12.6454 7.2881C17.6444 5.2091 18.6824 4.8481 19.3594 4.8361C19.5094 4.8331 19.8414 4.8701 20.0574 5.0461C20.2394 5.1931 20.2894 5.3931 20.3134 5.5331C20.3374 5.6731 20.3674 5.9921 20.3434 6.2411C20.0734 9.0881 18.9004 15.9951 18.3034 19.1831C18.0514 20.5311 17.5554 20.9831 17.0734 21.0281C16.0284 21.1241 15.2354 20.3381 14.2234 19.6741C12.6384 18.6351 11.7434 17.9881 10.2054 16.9751C8.42844 15.8041 9.58044 15.1601 10.5934 14.1081C10.8584 13.8331 15.4634 9.6441 15.5534 9.2641C15.5634 9.2161 15.5744 9.0391 15.4694 8.9461C15.3644 8.8521 15.2094 8.8841 15.0964 8.9101C14.9371 8.9461 12.4064 10.6188 7.50444 13.9281C6.78511 14.4214 6.13444 14.6618 5.55244 14.6491C4.90944 14.6351 3.67244 14.2861 2.75444 13.9871C1.62644 13.6201 0.730444 13.4271 0.808445 12.8041C0.849111 12.4801 1.29578 12.1488 2.14844 11.8101Z" fill="white"/>
</svg>
