<svg width="20" height="20" viewBox="0 0 20 20" fill="none" xmlns="http://www.w3.org/2000/svg">
<g clip-path="url(#clip0_132_11761)">
<path d="M11.6205 14.2789C11.5861 14.4544 11.5577 14.6727 11.5561 14.9227C11.5555 15.1861 11.5844 15.4149 11.6205 15.5977C11.5472 15.5577 11.4111 15.4705 11.2989 15.3083C11.1811 15.1394 11.1489 14.9738 11.1383 14.8905C10.8955 14.9771 10.5161 15.081 10.0433 15.0833C9.555 15.0855 9.1628 14.9788 8.9172 14.8905C8.905 14.9766 8.86607 15.1616 8.7244 15.3405C8.60887 15.4849 8.47773 15.561 8.4022 15.5977C8.43887 15.4165 8.46887 15.1877 8.46607 14.9227C8.46387 14.6849 8.43607 14.4782 8.4022 14.311C8.7772 14.3749 9.22107 14.426 9.72167 14.4377V13.7133C9.63333 13.685 9.5472 13.645 9.4678 13.5911L9.355 13.5145C9.14113 13.37 9.01387 13.1295 9.01387 12.8711C9.01387 12.62 9.2172 12.4161 9.46773 12.4161H10.5544C10.8055 12.4161 11.0094 12.62 11.0094 12.8711C11.0094 13.1295 10.8816 13.37 10.6677 13.5145L10.5549 13.5911C10.4749 13.645 10.3899 13.685 10.3005 13.7133V14.4317C10.8017 14.4111 11.2467 14.35 11.6205 14.2789Z" fill="#878786"/>
<path d="M10 0C4.4772 0 0 4.4772 0 10C0 15.5228 4.4772 20 10 20C15.5228 20 20 15.5228 20 10C20 4.4772 15.5228 0 10 0ZM15.7167 14.0245C14.6717 15.5839 12.4022 17.1828 10.0878 17.2206H10.0767L10.0705 17.2217H10.0555C10.0405 17.2223 10.0244 17.2223 10.0089 17.2223H9.9794C9.78887 17.2217 9.58993 17.2101 9.38887 17.1878C7.10167 16.9273 4.96167 15.2183 4.1094 13.7417C3.79827 13.2017 3.75773 12.8472 3.82387 12.695C3.82667 12.6883 3.83053 12.6817 3.83553 12.6722C3.9672 12.4372 4.52607 12.2594 5.13607 12.2594C5.2116 12.2594 5.28387 12.2616 5.35107 12.2683C6.33607 12.3494 6.9644 13.0633 7.18993 13.3666L7.5016 13.7883L7.7166 13.3099C8.12273 12.4061 9.02327 11.8211 10.0116 11.8177H10.0188C10.9966 11.8177 11.8949 12.3927 12.3077 13.2816L12.5293 13.7599L12.836 13.3316C13.0088 13.0899 13.6515 12.2988 14.6655 12.2355C14.7127 12.2327 14.7621 12.231 14.8133 12.231C15.4483 12.231 16.0533 12.4477 16.1605 12.7138L16.166 12.7249C16.2339 12.9167 16.1561 13.3678 15.7167 14.0245ZM16.4489 12.5733C16.4483 12.5817 16.4472 12.5895 16.4461 12.5978C16.2327 12.0745 15.2666 11.89 14.6466 11.9295C13.4349 12.0045 12.7088 12.9817 12.5866 13.1523C12.1216 12.1506 11.1138 11.5073 10.0111 11.5106C8.9016 11.5134 7.89107 12.1706 7.4366 13.1839C7.29827 12.9973 6.58107 12.0611 5.3766 11.9617C4.78827 11.9123 3.8338 12.0462 3.56713 12.5223C3.50327 12.0056 3.55267 11.5211 3.5738 11.3178C3.59713 11.0956 3.72433 10.1 4.39547 8.86113C3.97047 8.42667 3.82993 7.89333 3.6388 7.1656C3.49547 6.62507 3.6538 2.94007 3.86433 2.81947C4.1082 2.68 4.51213 2.88227 5.37653 3.5606C6.651 4.56113 7.31653 5.0834 7.62153 5.5778C9.9182 4.5856 12.0332 5.42 12.3999 5.5778C12.7299 5.025 13.2971 4.57947 14.3887 3.72113C15.7237 2.67167 16.0354 2.7478 16.1582 2.81947C16.3499 2.93167 16.4571 6.445 16.3199 7.03667C16.106 7.95553 15.9899 8.4528 15.6227 8.85833C15.9005 9.4122 16.2415 10.2522 16.3843 11.3178C16.4345 11.6889 16.4928 12.1205 16.4489 12.5733Z" fill="#878786"/>
<path d="M5.93387 4.79833C5.81607 4.6878 4.83887 3.7772 4.49273 3.89113C4.48273 3.89393 4.4744 3.8978 4.46773 3.90167C4.41553 3.92887 4.25493 4.02947 4.24493 4.5428C4.20773 6.42893 4.1894 7.40613 4.95773 7.9056C5.40827 7.21613 6.0544 6.43727 7.0444 5.86727C6.97553 5.73113 6.94833 5.75167 5.93387 4.79833Z" fill="#878786"/>
<path d="M15.7783 4.5428C15.775 4.36667 15.7622 4.00833 15.5555 3.90167C15.5477 3.8978 15.5394 3.89387 15.5294 3.89113C15.1755 3.77447 14.1561 4.73393 14.0894 4.79833C13.4099 5.44947 13.0689 5.7778 13.0055 5.90947C13.8344 6.46167 14.565 7.33227 15.0344 7.96947C15.8333 7.49667 15.8133 6.44167 15.7783 4.5428Z" fill="#878786"/>
<path d="M14.075 9.67553C14.0611 9.6644 14.0455 9.655 14.0295 9.6472C13.9311 9.6022 13.7933 9.62107 13.6417 9.67553C13.3511 9.7794 13.0083 10.01 12.7878 10.1589C12.6156 10.2744 11.5 11.0255 11.6283 11.2855C11.7205 11.4705 12.3845 11.2894 13.1089 11.0917C13.5822 10.9633 13.9005 10.8289 14.075 10.5472C14.1078 10.495 14.1905 10.3567 14.2039 10.1589C14.2061 10.1228 14.2267 9.79887 14.075 9.67553Z" fill="#878786"/>
<path d="M12.2967 9.22167C12.31 9.23333 12.3239 9.2422 12.3367 9.25333C12.4239 9.31553 12.5311 9.35387 12.6555 9.35387H13.5472C14.0594 9.35387 14.2917 8.71053 13.8955 8.385C13.6783 8.20667 13.4017 8.09833 13.1011 8.09833C12.8011 8.09833 12.5244 8.20667 12.3066 8.385C12.0316 8.61167 12.0599 8.99113 12.2744 9.20167C12.2817 9.20833 12.2895 9.21553 12.2967 9.22167Z" fill="#878786"/>
<path d="M7.24387 10.1589C6.99833 9.9944 6.60607 9.7294 6.2994 9.6472C6.20887 9.62273 6.12553 9.6144 6.05553 9.6294C6.01833 9.6372 5.985 9.65273 5.95607 9.67553C5.80387 9.79887 5.8244 10.1227 5.8266 10.1589C5.83993 10.3567 5.9238 10.495 5.95607 10.5472C6.13053 10.8289 6.44827 10.9633 6.9216 11.0917C7.64607 11.2895 8.30993 11.4705 8.40213 11.2855C8.53053 11.0255 7.41553 10.2745 7.24387 10.1589Z" fill="#878786"/>
<path d="M6.1272 8.385C5.73053 8.71053 5.96273 9.35387 6.47607 9.35387H7.36667C7.4678 9.35387 7.55887 9.32833 7.63553 9.28607C7.68833 9.25607 7.73553 9.21773 7.7744 9.17327C7.96493 8.9588 7.97887 8.6016 7.71553 8.38493C7.49887 8.2066 7.22107 8.09827 6.92167 8.09827C6.62113 8.09833 6.34387 8.20667 6.1272 8.385Z" fill="#878786"/>
</g>
<defs>
<clipPath id="clip0_132_11761">
<rect width="20" height="20" fill="white"/>
</clipPath>
</defs>
</svg>
