<svg width="21" height="20" viewBox="0 0 21 20" fill="none" xmlns="http://www.w3.org/2000/svg">
<g clip-path="url(#clip0_132_11740)">
<path d="M16.3781 8.76495C16.3781 9.28578 14.5131 9.72161 12.0131 9.83161L12.0147 9.83245C11.5985 9.85521 11.1816 9.86438 10.7647 9.85995C10.1156 9.85995 9.65641 9.84078 9.49474 9.83328C6.98974 9.72245 5.11974 9.28661 5.11974 8.76495C5.11974 8.24328 6.98974 7.80661 9.49474 7.69495V9.39828C9.65808 9.41078 10.1272 9.43828 10.7756 9.43828C11.5531 9.43828 11.9422 9.40495 12.0131 9.39911V7.69661C14.5131 7.80745 16.3781 8.24411 16.3781 8.76495ZM20.7031 9.21995L10.8531 18.6583C10.8252 18.685 10.788 18.6999 10.7493 18.6999C10.7107 18.6999 10.6735 18.685 10.6456 18.6583L0.796409 9.21995C0.77352 9.19809 0.75813 9.16955 0.752442 9.13842C0.746755 9.10729 0.75106 9.07515 0.764742 9.04661L4.41141 1.38661C4.42358 1.3609 4.44281 1.33917 4.46686 1.32398C4.49091 1.30878 4.51879 1.30073 4.54724 1.30078H16.9539C16.9819 1.3012 17.0093 1.30947 17.0328 1.32464C17.0564 1.33981 17.0753 1.36128 17.0872 1.38661L20.7347 9.04661C20.7484 9.07515 20.7527 9.10729 20.747 9.13842C20.7414 9.16955 20.726 9.19809 20.7031 9.21995ZM16.9714 8.88328C16.9714 8.21161 14.8447 7.64995 12.0156 7.51911V5.99578H15.5039V3.67078H6.00641V5.99578H9.49391V7.51995C6.65891 7.64995 4.52724 8.21161 4.52724 8.88411C4.52724 9.55745 6.65891 10.1174 9.49391 10.2491V15.1341H12.0147V10.2474C14.8431 10.1166 16.9714 9.55578 16.9714 8.88328Z" fill="#9956F4"/>
</g>
<defs>
<clipPath id="clip0_132_11740">
<rect width="20" height="20" fill="white" transform="translate(0.75)"/>
</clipPath>
</defs>
</svg>
